<?xml version="1.0" encoding="UTF-8" standalone="no"?>
<!-- Generator: Adobe Illustrator 15.0.0, SVG Export Plug-In . SVG Version: 6.00 Build 0)  -->

<svg
   xmlns:dc="http://purl.org/dc/elements/1.1/"
   xmlns:cc="http://creativecommons.org/ns#"
   xmlns:rdf="http://www.w3.org/1999/02/22-rdf-syntax-ns#"
   xmlns:svg="http://www.w3.org/2000/svg"
   xmlns="http://www.w3.org/2000/svg"
   xmlns:sodipodi="http://sodipodi.sourceforge.net/DTD/sodipodi-0.dtd"
   xmlns:inkscape="http://www.inkscape.org/namespaces/inkscape"
   version="1.1"
   id="Layer_1"
   x="0px"
   y="0px"
   width="980.91016"
   height="599.31067"
   viewBox="0 0 980.91016 599.31067"
   enable-background="new 0 0 1024 814"
   xml:space="preserve"
   sodipodi:docname="usps-top.svg"
   inkscape:version="0.92.2 2405546, 2018-03-11"><metadata
   id="metadata3771"><rdf:RDF><cc:Work
       rdf:about=""><dc:format>image/svg+xml</dc:format><dc:type
         rdf:resource="http://purl.org/dc/dcmitype/StillImage" /><dc:title /></cc:Work></rdf:RDF></metadata><defs
   id="defs3769" /><sodipodi:namedview
   pagecolor="#ffffff"
   bordercolor="#666666"
   borderopacity="1"
   objecttolerance="10"
   gridtolerance="10"
   guidetolerance="10"
   inkscape:pageopacity="0"
   inkscape:pageshadow="2"
   inkscape:window-width="1916"
   inkscape:window-height="1056"
   id="namedview3767"
   showgrid="false"
   inkscape:zoom="0.70710678"
   inkscape:cx="549.67559"
   inkscape:cy="349.45002"
   inkscape:window-x="0"
   inkscape:window-y="20"
   inkscape:window-maximized="1"
   inkscape:current-layer="Layer_1"
   fit-margin-top="0"
   fit-margin-left="0"
   fit-margin-right="0"
   fit-margin-bottom="0" />
<g
   id="g4702"
   transform="translate(-2990.5049,614.40314)"
   style="display:inline;fill:#ffffff"><path
     style="display:inline;fill:#ffffff"
     d="m 3117.6143,-614.40314 c -10.6797,50.34966 -21.4394,100.77766 -32.2207,151.23046 20.1579,-3.1478 40.6911,-2.2826 61.0098,-3.4609 54.67,-0.63 109.3298,-1.3903 164.0098,-0.9903 94.01,0.86 188.0717,1.2503 282.0117,5.2403 33.24,1.18 66.7199,4.0688 98.8789,13.0488 17.62,5.17 35.9007,13.2605 46.2617,29.2305 25.609,0.65 51.2101,-1.0707 76.8301,-0.7207 8.699,0.32 19.4192,2.1305 23.6582,10.8105 4.471,10.51 0.3211,22.0095 -3.1289,32.1895 -5.34,13.98 -11.3197,27.8904 -19.4707,40.4804 -3.14,5.84 -16.2507,5.3008 -14.2207,-2.9492 8.229,-15.31 13.6199,-33.1996 9.6699,-50.5996 -7.8,-2.99 -16.3095,-2.1205 -24.4785,-2.3105 -41.569,0.57 -82.7798,6.839 -124.0508,11.289 -5.85,0.4 -13.1791,-0.4286 -16.5391,-5.8886 -1.83,-4.32 3.3198,-6.8002 6.7598,-7.4102 13.5,-2.55 26.6998,-6.5209 39.5508,-11.3809 4.88,-2.24 10.9887,-5.5296 11.2597,-11.5996 -2.521,-1.14 -5.2302,-1.7393 -7.9902,-1.6093 -109.46,0.2 -218.9406,-0.2108 -328.3906,0.1992 19.02,54.16 39.0508,107.9909 58.6308,161.9609 39.939,-19.17 81.6607,-34.3509 123.8907,-47.6308 61.67,-19.0501 124.3284,-35.1898 187.8984,-46.5098 11.96,-1.78 23.8803,-4.5192 36.0293,-4.4492 7.261,-0.27 14.5802,6.2295 13.6602,13.7695 -0.37,5.86 -6.5193,9.0303 -11.7383,9.5703 -37.98,4.43 -75.2914,13.2096 -112.1114,23.3496 -62.36,17.48 -123.3187,39.58 -183.4687,63.5 -158.741,63.54 -311.9817,139.7798 -463.7617,218.259796 -8.55,4.1 -16.7389,8.978574 -25.5489,12.529574 h 65.7696 c 6.67,-3.04 13.6099,-6.139874 20.4199,-8.839874 219.859,-85.509996 439.7594,-170.918896 659.6094,-256.458896 12.71,-8.21 26.611,-15.4608 42.041,-16.4707 8.65,-0.1301 16.1291,-4.8207 23.2891,-9.1407 25.42,-15.78 44.4395,-41.7283 51.0605,-70.9883 4.149,-17.16 5.7715,-36.931 -3.9785,-52.541 -3.67,-6.38 -11.2508,-8.2105 -18.0508,-8.8105 -25.06,-2.22 -50.2801,-1.1589 -75.3301,0.6211 -6.77,1.09 -8.1108,-7.5304 -12.5508,-10.9004 -16.101,-14.93 -37.6397,-22.6003 -58.7597,-27.2402 -181.471,-44.2001 -362.9402,-88.3904 -544.4102,-132.57036 -7.35,-1.88 -14.83,-3.2686 -22,-5.8086 z"
     id="path3784-6"
     inkscape:connector-curvature="0"
     sodipodi:nodetypes="ccccccccccccccccccccccccccccccccccccccccccccc" /></g>

</svg>